<?xml version="1.0" standalone="no"?>
<!DOCTYPE svg PUBLIC "-//W3C//DTD SVG 20010904//EN"
 "http://www.w3.org/TR/2001/REC-SVG-20010904/DTD/svg10.dtd">
<svg version="1.0" xmlns="http://www.w3.org/2000/svg"
 width="577.000000pt" height="433.000000pt" viewBox="0 0 577.000000 433.000000"
 preserveAspectRatio="xMidYMid meet">

<g transform="translate(0.000000,433.000000) scale(0.100000,-0.100000)"
fill="#000000" stroke="none">
<path d="M4430 4099 c-30 -30 -107 -94 -170 -141 -64 -47 -128 -100 -144 -118
-43 -52 -83 -139 -112 -250 -20 -72 -30 -97 -35 -84 -21 53 1 194 38 251 21
31 9 29 -41 -9 -143 -110 -192 -193 -265 -451 -34 -118 -58 -183 -66 -175 -10
10 26 239 45 291 11 29 36 79 55 111 19 32 35 60 35 62 0 8 -85 -50 -151 -102
-37 -29 -88 -81 -114 -116 -90 -119 -118 -213 -118 -401 0 -68 -3 -115 -8
-110 -5 5 -19 36 -31 69 -18 46 -23 81 -23 159 0 92 3 105 32 168 l32 68 -48
-41 c-129 -109 -169 -220 -191 -520 -6 -85 -15 -159 -19 -163 -16 -16 -43 110
-48 218 -3 77 -1 129 10 173 l15 63 -21 -18 c-31 -28 -102 -141 -131 -210 -45
-109 -65 -193 -97 -423 -19 -141 -28 -141 -49 3 -22 148 17 312 107 456 l34
53 -33 -23 c-63 -44 -186 -174 -236 -251 -57 -89 -105 -198 -127 -291 -12 -52
-35 -284 -35 -359 0 -40 -21 -13 -42 55 -32 101 -33 305 -2 387 12 30 24 64
28 75 14 37 -129 -122 -167 -186 -95 -161 -112 -361 -52 -609 6 -24 5 -23 -23
8 -88 99 -133 270 -102 382 l9 35 -24 -30 c-35 -43 -96 -149 -128 -223 -42
-98 -65 -204 -77 -352 -11 -135 -37 -269 -64 -334 -10 -23 -11 -38 -5 -42 6
-3 11 -4 13 -3 1 2 55 71 120 153 261 328 459 546 916 1011 741 753 1213 1264
1362 1473 77 108 102 136 77 90 -19 -36 -146 -225 -205 -304 -142 -193 -516
-627 -1089 -1264 -351 -391 -587 -675 -831 -1001 -108 -145 -201 -269 -206
-275 -6 -8 2 -18 22 -31 l30 -19 58 28 c77 36 153 53 351 79 260 33 415 88
576 204 97 70 158 122 130 111 -48 -18 -137 -37 -221 -47 -148 -16 -320 13
-446 77 -68 35 -66 42 10 28 182 -35 409 -27 598 21 88 22 252 90 242 100 -2
3 -31 0 -64 -6 -73 -14 -221 -6 -294 16 -85 26 -83 35 5 35 158 0 353 46 475
111 131 70 250 199 331 361 l40 79 -52 -41 c-198 -156 -494 -223 -774 -175
-131 23 -131 31 1 39 343 19 666 148 894 356 l55 50 -51 -25 c-74 -36 -83 -31
-27 14 61 49 150 143 190 201 55 82 127 238 147 324 7 27 4 25 -59 -28 -120
-102 -258 -170 -407 -201 -93 -20 -263 -31 -271 -18 -4 6 12 13 39 17 65 9
239 68 326 112 248 124 416 299 489 511 28 83 25 93 -18 51 -76 -71 -200 -135
-293 -152 -33 -5 -34 -5 -16 9 11 8 24 15 29 15 14 0 148 89 192 128 90 79
171 198 189 277 4 17 9 38 12 48 3 10 -23 -10 -58 -45 -62 -62 -186 -138 -224
-138 -14 1 -11 5 11 17 126 67 252 217 289 342 16 55 22 241 8 271 -5 11 -20
2 -62 -41z m-245 -259 c0 -7 -6 -15 -12 -17 -8 -3 -13 4 -13 17 0 13 5 20 13
18 6 -3 12 -11 12 -18z m-757 -1442 c17 -17 15 -44 -4 -62 -20 -21 -30 -20
-54 4 -24 24 -25 34 -4 54 18 19 45 21 62 4z m-580 -664 c6 -40 -48 -56 -62
-18 -10 26 5 45 33 42 17 -2 27 -10 29 -24z"/>
<path d="M2623 3779 c-354 -34 -671 -186 -928 -443 -224 -225 -360 -477 -411
-766 -25 -138 -22 -356 5 -487 55 -263 188 -523 366 -711 l71 -75 26 93 26 92
-52 72 c-106 148 -189 346 -221 530 -17 101 -20 301 -5 393 73 449 416 858
845 1006 172 60 248 71 450 71 191 0 245 -8 417 -60 l87 -27 39 25 c21 14 67
40 102 58 72 36 75 30 -50 94 -154 79 -292 116 -495 136 -121 11 -151 11 -272
-1z m205 -77 c4 -28 -24 -41 -44 -20 -20 20 -7 50 20 46 13 -2 22 -12 24 -26z
m400 -61 c20 -12 10 -46 -14 -49 -25 -4 -40 24 -23 44 13 16 19 17 37 5z
m-899 -50 c8 -14 7 -22 -4 -31 -19 -16 -45 -6 -45 18 0 36 33 45 49 13z m-195
-77 c7 -19 -10 -44 -31 -44 -17 0 -27 24 -19 45 7 20 42 19 50 -1z"/>
<path d="M2520 3385 c0 -9 5 -15 11 -13 6 2 11 8 11 13 0 5 -5 11 -11 13 -6 2
-11 -4 -11 -13z"/>
<path d="M3040 3315 c0 -9 5 -15 11 -13 6 2 11 8 11 13 0 5 -5 11 -11 13 -6 2
-11 -4 -11 -13z"/>
<path d="M2782 3250 c-51 -21 -46 -107 8 -121 26 -6 59 5 72 25 12 18 9 73 -4
84 -21 16 -52 21 -76 12z"/>
<path d="M2195 3200 c-4 -6 -3 -16 3 -22 6 -6 12 -6 17 2 4 6 3 16 -3 22 -6 6
-12 6 -17 -2z"/>
<path d="M2342 3049 c-100 -65 -92 -218 16 -270 52 -26 104 -22 157 11 93 58
91 207 -3 263 -43 25 -128 23 -170 -4z"/>
<path d="M1962 2873 c-45 -18 -31 -83 17 -83 29 0 41 15 41 50 0 16 -29 42
-42 39 -2 0 -9 -3 -16 -6z"/>
<path d="M1730 2545 c0 -8 5 -15 10 -15 6 0 10 7 10 15 0 8 -4 15 -10 15 -5 0
-10 -7 -10 -15z"/>
<path d="M2100 2426 c0 -9 7 -16 16 -16 9 0 14 5 12 12 -6 18 -28 21 -28 4z"/>
<path d="M1805 2345 c-40 -39 -27 -104 26 -125 33 -14 62 -6 89 23 44 46 5
127 -60 127 -19 0 -40 -9 -55 -25z"/>
<path d="M4086 2213 c-10 -21 -40 -72 -67 -114 -27 -41 -49 -85 -49 -98 0 -38
-56 -194 -104 -288 -181 -359 -518 -616 -919 -703 -51 -10 -117 -28 -149 -39
-31 -12 -129 -34 -218 -50 -88 -16 -163 -31 -166 -33 -2 -3 31 -11 73 -19 104
-19 414 -19 508 0 185 36 416 137 560 243 283 209 483 539 540 888 17 108 27
250 17 250 -5 0 -16 -17 -26 -37z"/>
<path d="M1814 1906 c-9 -24 4 -48 23 -44 24 4 24 52 0 56 -9 2 -20 -4 -23
-12z"/>
<path d="M1746 1097 c-10 -7 -16 -22 -14 -34 3 -24 293 -263 319 -263 21 0 39
20 39 45 0 14 -38 50 -126 120 -139 111 -186 145 -194 145 -4 0 -14 -6 -24
-13z"/>
<path d="M1612 906 l-51 -64 22 -20 c53 -48 291 -232 298 -230 9 4 99 119 99
127 -1 5 -248 203 -299 239 -15 11 -23 4 -69 -52z"/>
<path d="M1500 735 c-14 -8 -46 -21 -72 -30 -46 -16 -46 -17 -37 -48 5 -18 9
-69 9 -115 0 -98 -31 -203 -87 -295 -19 -32 -32 -61 -29 -65 13 -12 828 -15
1017 -3 101 7 185 14 188 16 11 12 -17 16 -190 31 -142 12 -263 14 -534 10
-192 -3 -366 -8 -385 -11 l-35 -6 48 45 c89 84 256 147 348 132 36 -6 36 -6
42 37 4 23 9 56 12 73 6 29 2 34 -121 130 -157 122 -144 115 -174 99z m100
-179 c22 -28 8 -60 -32 -71 -20 -6 -43 -16 -50 -23 -20 -20 -30 -13 -14 10 9
12 16 34 16 48 0 14 5 31 12 38 16 16 53 15 68 -2z"/>
</g>
</svg>
